<svg xmlns="http://www.w3.org/2000/svg" xml:space="preserve" viewBox="0 0 512 512"><path d="M21.333 437.333c0 17.643 14.379 32 32 32H224c17.643 0 32-14.357 32-32v-74.667H21.333zM501.333 106.667h-78.72l-12.48-24.981C404.672 70.784 393.685 64 381.504 64h-49.088l-36.075-12.011a180.6 180.6 0 0 0-57.344-9.323H32c-17.621 0-32 14.357-32 32V160c0 17.643 14.379 32 32 32h51.563L64.768 314.069l-36.331 27.264h219.072l-65.045-27.883 7.232-47.061c.789.171 1.557.277 2.325.277 4.779 0 9.131-3.221 10.325-8.085l10.667-42.667c1.429-5.717-2.048-11.499-7.765-12.928-2.027-.512-4.032-.235-5.867.384l1.771-11.37h37.824c19.541 0 38.827-3.136 57.344-9.323l36.075-12.011h49.088c12.203 0 23.168-6.784 28.629-17.685L422.592 128h78.741c5.888 0 10.667-4.779 10.667-10.667s-4.779-10.666-10.667-10.666m-384 42.666h-64c-5.888 0-10.667-4.779-10.667-10.667S47.445 128 53.333 128h64c5.888 0 10.667 4.779 10.667 10.667s-4.779 10.666-10.667 10.666m0-42.666h-64c-5.888 0-10.667-4.779-10.667-10.667s4.779-10.667 10.667-10.667h64C123.221 85.333 128 90.112 128 96s-4.779 10.667-10.667 10.667m224 32c0 5.888-4.779 10.667-10.667 10.667S320 144.555 320 138.667V96c0-5.888 4.779-10.667 10.667-10.667S341.333 90.112 341.333 96z"></path></svg>